<svg width="24" height="24" viewBox="0 0 24 24" fill="none" xmlns="http://www.w3.org/2000/svg">
<path d="M21.7494 11.7581C22.112 11.3462 22.077 10.7149 21.6713 10.3485L12.733 2.26989C12.3273 1.90342 11.6769 1.9111 11.2797 2.2872L2.31106 10.7792C1.91389 11.1553 1.8944 11.7857 2.2679 12.1868L2.49275 12.4287C2.8658 12.8297 3.46878 12.8775 3.8387 12.5351L4.50896 11.9151V20.9922C4.50896 21.5491 4.94583 22 5.4846 22H8.9806C9.51937 22 9.95624 21.5491 9.95624 20.9922V14.6419H14.4154V20.9922C14.4077 21.5487 14.7932 21.9996 15.3319 21.9996H19.0368C19.5756 21.9996 20.0124 21.5487 20.0124 20.9918V12.0429C20.0124 12.0429 20.1976 12.2105 20.426 12.4178C20.654 12.6248 21.1328 12.4588 21.4954 12.0466L21.7494 11.7581Z" fill="#666666"/>
</svg>
