<svg width="24" height="24" viewBox="0 0 24 24" fill="none" xmlns="http://www.w3.org/2000/svg">
<path d="M19.049 17.726L15.3108 15.9748C14.9583 15.8094 14.7391 15.4772 14.7391 15.1076V13.8679C14.8287 13.7652 14.923 13.6483 15.0205 13.5192C15.5053 12.8775 15.8939 12.1633 16.1764 11.3929C16.7285 11.1557 17.087 10.6442 17.087 10.0667V8.6C17.087 8.2469 16.9461 7.9048 16.6957 7.6375V5.6872C16.7176 5.48553 16.8037 4.28507 15.877 3.2947C15.0733 2.4356 13.7691 2 12 2C10.2309 2 8.9267 2.4356 8.12296 3.29433C7.19635 4.2847 7.28243 5.48553 7.30435 5.6872V7.6375C7.05391 7.9048 6.91304 8.2469 6.91304 8.6V10.0667C6.91304 10.5129 7.12943 10.9291 7.49883 11.2066C7.85726 12.5365 8.60739 13.5386 8.86957 13.8602V15.0735C8.86957 15.4284 8.66296 15.754 8.33074 15.9242L4.83991 17.7084C3.70474 18.2888 3 19.4013 3 20.6127V21.8C3 23.5402 8.88717 24 12 24C15.1128 24 21 23.5402 21 21.8V20.6842C21 19.4236 20.2522 18.2899 19.049 17.726Z" fill="#666666"/>
</svg>
